<svg width="32" height="32" viewBox="0 0 32 32" fill="none" xmlns="http://www.w3.org/2000/svg">
  <!-- Background circle with gradient -->
  <defs>
    <linearGradient id="bgGradient" x1="0%" y1="0%" x2="100%" y2="100%">
      <stop offset="0%" style="stop-color:#10B981;stop-opacity:1" />
      <stop offset="50%" style="stop-color:#059669;stop-opacity:1" />
      <stop offset="100%" style="stop-color:#047857;stop-opacity:1" />
    </linearGradient>
    <linearGradient id="leafGradient" x1="0%" y1="0%" x2="100%" y2="100%">
      <stop offset="0%" style="stop-color:#FFFFFF;stop-opacity:1" />
      <stop offset="100%" style="stop-color:#F0FDF4;stop-opacity:1" />
    </linearGradient>
  </defs>
  
  <!-- Background circle -->
  <circle cx="16" cy="16" r="15" fill="url(#bgGradient)" stroke="#065F46" stroke-width="1"/>
  
  <!-- Leaf shape -->
  <path d="M16 6 C20 6, 22 8, 22 12 C22 16, 20 18, 16 18 C12 18, 10 16, 10 12 C10 8, 12 6, 16 6 Z" fill="url(#leafGradient)"/>
  
  <!-- Leaf vein -->
  <path d="M16 6 L16 18 M12 10 L20 10 M12 14 L20 14" stroke="#059669" stroke-width="1" stroke-linecap="round"/>
  
  <!-- Small circles representing waste items -->
  <circle cx="8" cy="24" r="2" fill="#F59E0B" opacity="0.8"/>
  <circle cx="24" cy="24" r="2" fill="#3B82F6" opacity="0.8"/>
  <circle cx="16" cy="26" r="1.5" fill="#EF4444" opacity="0.8"/>
</svg> 